<svg width="328.491" height="71.777" viewBox="0 0 328.491 71.777" xmlns="http://www.w3.org/2000/svg"><g id="svgGroup" stroke-linecap="round" fill-rule="nonzero" font-size="9pt" stroke="#ffffff" stroke-width="0.5" fill="#ffffff" style="stroke:#ffffff;stroke-width:0.5;fill:#ffffff"><path d="M 160.254 58.228 L 159.888 58.228 L 159.888 3.296 L 166.846 0 L 167.212 0 L 167.212 18.86 Q 169.958 15.747 175.085 15.747 A 14.817 14.817 0 0 1 185.742 19.885 A 14.116 14.116 0 0 1 190.283 30.396 L 190.283 54.932 L 183.325 58.228 L 182.959 58.228 L 182.959 30.396 A 7.693 7.693 0 0 0 180.67 24.225 Q 178.381 22.266 175.085 22.266 A 8.294 8.294 0 0 0 169.501 24.225 A 7.693 7.693 0 0 0 167.212 30.396 L 167.212 54.932 L 160.254 58.228 Z M 146.704 40.54 L 147.07 40.54 L 147.07 42.847 A 14.27 14.27 0 0 1 142.529 53.357 A 14.657 14.657 0 0 1 131.873 57.495 A 14.817 14.817 0 0 1 121.216 53.357 A 14.116 14.116 0 0 1 116.675 42.847 L 116.675 30.396 A 14.193 14.193 0 0 1 121.216 19.885 A 14.657 14.657 0 0 1 131.873 15.747 A 14.979 14.979 0 0 1 142.529 19.885 A 12.806 12.806 0 0 1 147.07 29.333 L 147.07 29.407 L 140.112 32.703 L 139.746 32.703 L 139.746 30.396 A 7.693 7.693 0 0 0 137.457 24.225 Q 135.168 22.266 131.873 22.266 A 8.294 8.294 0 0 0 126.288 24.225 A 7.693 7.693 0 0 0 123.999 30.396 L 123.999 42.847 A 7.693 7.693 0 0 0 126.288 49.017 Q 128.577 50.977 131.873 50.977 Q 135.168 50.977 137.457 48.999 Q 139.746 47.021 139.746 43.835 L 146.704 40.54 Z M 53.577 58.228 L 53.21 58.228 L 53.21 8.13 L 37.537 8.13 L 37.537 7.764 L 40.503 1.465 L 76.208 1.465 L 76.208 1.831 L 73.242 8.13 L 60.535 8.13 L 60.535 54.932 L 53.577 58.228 Z M 17.761 56.763 L 0 56.763 L 0 3.296 L 3.882 1.465 L 17.761 1.465 Q 23.95 1.465 28.052 4.834 A 12.487 12.487 0 0 1 32.922 14.978 Q 32.922 21.277 27.356 25.452 Q 29.15 26.221 30.908 27.759 A 15.687 15.687 0 0 1 36.255 39.844 A 16.049 16.049 0 0 1 31.567 51.746 A 17.97 17.97 0 0 1 19.376 56.719 A 29.008 29.008 0 0 1 17.761 56.763 Z M 7.324 29.443 L 7.324 50.171 L 17.761 50.171 A 11.465 11.465 0 0 0 26.55 46.692 A 9.324 9.324 0 0 0 28.931 40.027 Q 28.931 35.742 26.404 32.813 A 10.044 10.044 0 0 0 18.663 29.464 A 19.387 19.387 0 0 0 17.761 29.443 L 7.324 29.443 Z M 7.324 8.057 L 7.324 22.852 L 17.761 22.852 Q 21.423 22.852 23.657 20.471 A 7.79 7.79 0 0 0 25.635 14.941 A 6.747 6.747 0 0 0 23.254 9.924 A 8.013 8.013 0 0 0 17.761 8.057 L 7.324 8.057 Z M 105.322 40.54 L 105.688 40.54 L 105.688 42.847 A 14.27 14.27 0 0 1 101.147 53.357 A 14.657 14.657 0 0 1 90.491 57.495 A 14.817 14.817 0 0 1 79.834 53.357 A 14.116 14.116 0 0 1 75.293 42.847 L 75.293 30.396 A 14.27 14.27 0 0 1 79.834 19.885 A 14.657 14.657 0 0 1 90.491 15.747 A 15.061 15.061 0 0 1 101.147 19.885 A 12.728 12.728 0 0 1 105.688 29.333 L 105.688 29.407 L 83.35 46.912 A 5.744 5.744 0 0 0 84.888 48.999 Q 87.195 50.977 90.491 50.977 Q 93.787 50.977 96.075 48.999 Q 98.364 47.021 98.364 43.835 L 105.322 40.54 Z M 82.617 30.396 L 82.617 39.514 L 97.925 27.1 A 6.168 6.168 0 0 0 96.094 24.243 Q 93.787 22.266 90.491 22.266 A 8.294 8.294 0 0 0 84.906 24.225 A 7.693 7.693 0 0 0 82.617 30.396 Z M 269.531 39.185 L 269.531 19.043 A 17.81 17.81 0 0 1 274.475 6.042 Q 279.675 0.732 288.025 0.732 Q 296.375 0.732 301.575 6.042 A 17.732 17.732 0 0 1 306.519 19.043 L 306.519 39.185 A 17.81 17.81 0 0 1 301.575 52.185 Q 296.375 57.495 288.025 57.495 Q 279.675 57.495 274.475 52.185 A 17.81 17.81 0 0 1 269.531 39.185 Z M 276.855 19.043 L 276.855 39.185 A 11.694 11.694 0 0 0 279.492 47.131 Q 282.751 50.903 288.025 50.903 Q 293.298 50.903 296.558 47.131 A 11.694 11.694 0 0 0 299.194 39.185 L 299.194 19.043 A 11.694 11.694 0 0 0 296.558 11.096 Q 293.298 7.324 288.025 7.324 Q 282.751 7.324 279.492 11.096 A 11.694 11.694 0 0 0 276.855 19.043 Z M 247.925 58.228 L 247.559 58.228 L 247.559 3.296 L 254.517 0 L 254.883 0 L 254.883 54.932 L 247.925 58.228 Z M 321.533 58.228 L 321.167 58.228 L 321.167 3.296 L 328.125 0 L 328.491 0 L 328.491 54.932 L 321.533 58.228 Z M 231.775 71.777 L 201.27 71.777 L 201.27 71.411 L 204.236 65.112 L 234.741 65.112 L 234.741 65.479 L 231.775 71.777 Z"/></g></svg>